G04*
G04 #@! TF.GenerationSoftware,Altium Limited,Altium Designer,24.0.1 (36)*
G04*
G04 Layer_Color=16711935*
%FSLAX25Y25*%
%MOIN*%
G70*
G04*
G04 #@! TF.SameCoordinates,25D60E08-F93C-496E-8ADE-9084BC3AF729*
G04*
G04*
G04 #@! TF.FilePolarity,Positive*
G04*
G01*
G75*
%ADD10C,0.00394*%
%ADD11C,0.00787*%
%ADD13C,0.00500*%
D10*
X327695Y98305D02*
X339506D01*
Y86494D02*
Y98305D01*
X327695Y86494D02*
X339506D01*
X327695D02*
Y98305D01*
Y96731D02*
X329269Y98305D01*
X320395Y155581D02*
Y167392D01*
X332206D01*
Y155581D02*
Y167392D01*
X320395Y155581D02*
X332206D01*
X320395Y166998D02*
X320789Y167392D01*
X320395Y166605D02*
X321183Y167392D01*
X320395Y166211D02*
X321576Y167392D01*
X320395Y165817D02*
X321970Y167392D01*
X320395Y165424D02*
X322364Y167392D01*
X320395Y165030D02*
X322758Y167392D01*
X320395Y164636D02*
X323151Y167392D01*
X320395Y164242D02*
X323545Y167392D01*
X320395Y163849D02*
X323939Y167392D01*
X320395Y163455D02*
X324332Y167392D01*
X358767Y84018D02*
X361129D01*
Y82837D02*
Y84018D01*
X358767Y82837D02*
X361129D01*
X358767D02*
Y84018D01*
X302720Y101591D02*
X305082D01*
Y100409D02*
Y101591D01*
X302720Y100409D02*
X305082D01*
X302720D02*
Y101591D01*
X303619Y117589D02*
X305981D01*
Y116408D02*
Y117589D01*
X303619Y116408D02*
X305981D01*
X303619D02*
Y117589D01*
X356019Y121391D02*
X358381D01*
Y120209D02*
Y121391D01*
X356019Y120209D02*
X358381D01*
X356019D02*
Y121391D01*
X298225Y65817D02*
X300587D01*
Y64636D02*
Y65817D01*
X298225Y64636D02*
X300587D01*
X298225D02*
Y65817D01*
X301021Y84609D02*
X303383D01*
Y83428D02*
Y84609D01*
X301021Y83428D02*
X303383D01*
X301021D02*
Y84609D01*
X359320Y100690D02*
X361682D01*
Y99510D02*
Y100690D01*
X359320Y99510D02*
X361682D01*
X359320D02*
Y100690D01*
X171958Y194754D02*
X266446D01*
Y100266D02*
Y194754D01*
X171958Y100266D02*
X266446D01*
X171958D02*
Y194754D01*
Y192786D02*
X173927Y194754D01*
X7076Y109364D02*
X43296D01*
X7076D02*
Y144836D01*
X43296D01*
Y109364D02*
Y144836D01*
X408552Y140350D02*
X444772D01*
Y104878D02*
Y140350D01*
X408552Y104878D02*
X444772D01*
X408552D02*
Y140350D01*
X432979Y166200D02*
X444821D01*
X432979D02*
Y228200D01*
X444821D01*
Y166200D02*
Y228200D01*
X74564Y5404D02*
Y41624D01*
X110036D01*
Y5404D02*
Y41624D01*
X74564Y5404D02*
X110036D01*
X138664Y7604D02*
Y43824D01*
X174136D01*
Y7604D02*
Y43824D01*
X138664Y7604D02*
X174136D01*
X7320Y169756D02*
X19162D01*
X7320D02*
Y231756D01*
X19162D01*
Y169756D02*
Y231756D01*
X221364Y9804D02*
Y46024D01*
X256836D01*
Y9804D02*
Y46024D01*
X221364Y9804D02*
X256836D01*
D11*
X320200Y136471D02*
X332011D01*
Y126628D02*
Y136471D01*
X320200Y126628D02*
X332011D01*
X320200D02*
Y136471D01*
D13*
X223927Y222694D02*
X266643D01*
X223927D02*
Y244151D01*
X266643D01*
Y222694D02*
Y244151D01*
X265462Y245037D02*
Y248974D01*
X261525Y247006D02*
X265462Y245037D01*
X261525Y247006D02*
X265462Y248974D01*
M02*
