G04*
G04 #@! TF.GenerationSoftware,Altium Limited,Altium Designer,24.0.1 (36)*
G04*
G04 Layer_Color=65535*
%FSLAX25Y25*%
%MOIN*%
G70*
G04*
G04 #@! TF.SameCoordinates,25D60E08-F93C-496E-8ADE-9084BC3AF729*
G04*
G04*
G04 #@! TF.FilePolarity,Positive*
G04*
G01*
G75*
%ADD10C,0.00394*%
%ADD11C,0.00787*%
%ADD12C,0.00984*%
%ADD13C,0.00500*%
%ADD14C,0.01000*%
D10*
X318625Y134699D02*
G03*
X318625Y134306I0J-197D01*
G01*
D02*
G03*
X318625Y134699I0J197D01*
G01*
X320200Y135487D02*
Y136471D01*
X322956D01*
X329255D02*
X332011D01*
Y135487D02*
Y136471D01*
X320200Y126628D02*
Y127219D01*
Y126628D02*
X322956D01*
X329255D02*
X332011D01*
Y127613D01*
D11*
X326612Y98699D02*
G03*
X326612Y98699I-394J0D01*
G01*
X320395Y167392D02*
X322364D01*
X330238D02*
X332206D01*
X320395Y155581D02*
X322364D01*
X330238D02*
X332206D01*
X173336Y193376D02*
X265069D01*
Y101644D02*
Y193376D01*
X173336Y101644D02*
X265069D01*
X173336D02*
Y193376D01*
X43296Y119600D02*
Y144836D01*
X7076D02*
X43296D01*
X7076Y109364D02*
Y144836D01*
Y109364D02*
X11800D01*
X408552Y104878D02*
Y130114D01*
Y104878D02*
X444772D01*
Y140350D01*
X440048D02*
X444772D01*
X438900Y166200D02*
X444821D01*
Y228200D01*
X432979D02*
X444821D01*
X432979Y172200D02*
Y228200D01*
X84800Y5404D02*
X110036D01*
Y41624D01*
X74564D02*
X110036D01*
X74564Y36900D02*
Y41624D01*
X148900Y7604D02*
X174136D01*
Y43824D01*
X138664D02*
X174136D01*
X138664Y39100D02*
Y43824D01*
X13241Y169756D02*
X19162D01*
Y231756D01*
X7320D02*
X19162D01*
X7320Y175756D02*
Y231756D01*
X231600Y9804D02*
X256836D01*
Y46024D01*
X221364D02*
X256836D01*
X221364Y41300D02*
Y46024D01*
D12*
X318525Y165424D02*
G03*
X318525Y165424I-492J0D01*
G01*
X167726Y192786D02*
G03*
X167726Y192786I-492J0D01*
G01*
D13*
X223927Y222694D02*
X266643D01*
X265462Y245037D02*
Y248974D01*
X261525Y247006D02*
X265462Y245037D01*
X261525Y247006D02*
X265462Y248974D01*
D14*
X316255Y148598D02*
X318255D01*
X317255D01*
Y142600D01*
X316255D01*
X318255D01*
X325253Y147598D02*
X324253Y148598D01*
X322254D01*
X321254Y147598D01*
Y143599D01*
X322254Y142600D01*
X324253D01*
X325253Y143599D01*
X327252Y147598D02*
X328252Y148598D01*
X330251D01*
X331251Y147598D01*
Y146598D01*
X329251Y144599D01*
Y143599D02*
Y142600D01*
X326150Y109848D02*
X328149D01*
X327150D01*
Y103850D01*
X326150D01*
X328149D01*
X335147Y108848D02*
X334147Y109848D01*
X332148D01*
X331148Y108848D01*
Y104850D01*
X332148Y103850D01*
X334147D01*
X335147Y104850D01*
X337146Y108848D02*
X338146Y109848D01*
X340145D01*
X341145Y108848D01*
Y107849D01*
X339146Y105849D01*
Y104850D02*
Y103850D01*
X362249Y109948D02*
X361250Y110948D01*
X359250D01*
X358251Y109948D01*
Y105950D01*
X359250Y104950D01*
X361250D01*
X362249Y105950D01*
X364249Y109948D02*
X365248Y110948D01*
X367248D01*
X368248Y109948D01*
Y108949D01*
X366248Y106949D01*
Y105950D02*
Y104950D01*
X303950Y93866D02*
X302951Y94866D01*
X300951D01*
X299952Y93866D01*
Y89868D01*
X300951Y88868D01*
X302951D01*
X303950Y89868D01*
X305950Y93866D02*
X306949Y94866D01*
X308949D01*
X309948Y93866D01*
Y92867D01*
X307949Y90868D01*
Y89868D02*
Y88868D01*
X305649Y110848D02*
X304650Y111848D01*
X302650D01*
X301651Y110848D01*
Y106850D01*
X302650Y105850D01*
X304650D01*
X305649Y106850D01*
X307649Y110848D02*
X308648Y111848D01*
X310648D01*
X311648Y110848D01*
Y109849D01*
X309648Y107849D01*
Y106850D02*
Y105850D01*
X301155Y75075D02*
X300155Y76075D01*
X298156D01*
X297156Y75075D01*
Y71076D01*
X298156Y70077D01*
X300155D01*
X301155Y71076D01*
X303154Y75075D02*
X304154Y76075D01*
X306153D01*
X307153Y75075D01*
Y74076D01*
X305154Y72076D01*
Y71076D02*
Y70077D01*
X361697Y93276D02*
X360697Y94276D01*
X358698D01*
X357698Y93276D01*
Y89277D01*
X358698Y88278D01*
X360697D01*
X361697Y89277D01*
X363696Y93276D02*
X364696Y94276D01*
X366695D01*
X367695Y93276D01*
Y92276D01*
X365696Y90277D01*
Y89277D02*
Y88278D01*
X306549Y126847D02*
X305549Y127847D01*
X303550D01*
X302550Y126847D01*
Y122848D01*
X303550Y121848D01*
X305549D01*
X306549Y122848D01*
X308548Y126847D02*
X309548Y127847D01*
X311547D01*
X312547Y126847D01*
Y125847D01*
X310547Y123848D01*
Y122848D02*
Y121848D01*
X358949Y130648D02*
X357949Y131648D01*
X355950D01*
X354950Y130648D01*
Y126650D01*
X355950Y125650D01*
X357949D01*
X358949Y126650D01*
X360948Y130648D02*
X361948Y131648D01*
X363947D01*
X364947Y130648D01*
Y129649D01*
X362947Y127649D01*
Y126650D02*
Y125650D01*
X318051Y171637D02*
Y175635D01*
X320050Y177635D01*
X322049Y175635D01*
Y171637D01*
Y174636D01*
X318051D01*
X328048Y176635D02*
X327048Y177635D01*
X325048D01*
X324049Y176635D01*
Y172636D01*
X325048Y171637D01*
X327048D01*
X328048Y172636D01*
X330047Y176635D02*
X331047Y177635D01*
X333046D01*
X334046Y176635D01*
Y175635D01*
X332046Y173636D01*
Y172636D02*
Y171637D01*
X225249Y56148D02*
X223249D01*
X224249D01*
Y51150D01*
X223249Y50150D01*
X222250D01*
X221250Y51150D01*
X227248Y55148D02*
X228248Y56148D01*
X230247D01*
X231247Y55148D01*
Y54149D01*
X229247Y52149D01*
Y51150D02*
Y50150D01*
X78449Y51748D02*
X76449D01*
X77449D01*
Y46750D01*
X76449Y45750D01*
X75450D01*
X74450Y46750D01*
X80448Y50748D02*
X81448Y51748D01*
X83447D01*
X84447Y50748D01*
Y49749D01*
X82447Y47749D01*
Y46750D02*
Y45750D01*
X11190Y241804D02*
X9190D01*
X10190D01*
Y236806D01*
X9190Y235806D01*
X8191D01*
X7191Y236806D01*
X13189Y240805D02*
X14189Y241804D01*
X16188D01*
X17188Y240805D01*
Y239805D01*
X15189Y237806D01*
Y236806D02*
Y235806D01*
X-3048Y113249D02*
Y111249D01*
Y112249D01*
X1950D01*
X2950Y111249D01*
Y110250D01*
X1950Y109250D01*
X-2048Y115248D02*
X-3048Y116248D01*
Y118247D01*
X-2048Y119247D01*
X-1049D01*
X951Y117247D01*
X1950D02*
X2950D01*
X142549Y53948D02*
X140549D01*
X141549D01*
Y48950D01*
X140549Y47950D01*
X139550D01*
X138550Y48950D01*
X144548Y52948D02*
X145548Y53948D01*
X147547D01*
X148547Y52948D01*
Y51949D01*
X146547Y49949D01*
Y48950D02*
Y47950D01*
X436849Y238248D02*
X434849D01*
X435849D01*
Y233250D01*
X434849Y232250D01*
X433850D01*
X432850Y233250D01*
X438848Y237248D02*
X439848Y238248D01*
X441847D01*
X442847Y237248D01*
Y236249D01*
X440847Y234249D01*
Y233250D02*
Y232250D01*
X209837Y222595D02*
Y220596D01*
Y221596D01*
X214835D01*
X215835Y220596D01*
Y219596D01*
X214835Y218597D01*
X210837Y224594D02*
X209837Y225594D01*
Y227593D01*
X210837Y228593D01*
X211836D01*
X213836Y226594D01*
X214835D02*
X215835D01*
X454896Y136466D02*
Y138465D01*
Y137465D01*
X449898D01*
X448898Y138465D01*
Y139464D01*
X449898Y140464D01*
X453896Y134466D02*
X454896Y133466D01*
Y131467D01*
X453896Y130467D01*
X452897D01*
X450897Y132467D01*
X449898D02*
X448898D01*
X166152Y210558D02*
X168152D01*
X167152D01*
Y204560D01*
X166152D01*
X168152D01*
X175150Y209559D02*
X174150Y210558D01*
X172150D01*
X171151Y209559D01*
Y205560D01*
X172150Y204560D01*
X174150D01*
X175150Y205560D01*
X177149Y209559D02*
X178148Y210558D01*
X180148D01*
X181148Y209559D01*
Y208559D01*
X179148Y206560D01*
Y205560D02*
Y204560D01*
M02*
