G04*
G04 #@! TF.GenerationSoftware,Altium Limited,Altium Designer,24.0.1 (36)*
G04*
G04 Layer_Color=8421504*
%FSLAX25Y25*%
%MOIN*%
G70*
G04*
G04 #@! TF.SameCoordinates,25D60E08-F93C-496E-8ADE-9084BC3AF729*
G04*
G04*
G04 #@! TF.FilePolarity,Positive*
G04*
G01*
G75*
%ADD15R,0.04362X0.03181*%
%ADD16R,0.03181X0.04362*%
%ADD17R,0.04953X0.02787*%
%ADD18R,0.02787X0.04953*%
%ADD19R,0.08260X0.08890*%
%ADD20R,0.03811X0.03654*%
%ADD21R,0.07709X0.03181*%
%ADD22R,0.03181X0.07709*%
%ADD23R,0.04362X0.08693*%
%ADD24R,0.05937X0.13024*%
D15*
X321578Y134502D02*
D03*
Y132534D02*
D03*
Y130565D02*
D03*
Y128597D02*
D03*
X330633D02*
D03*
Y130565D02*
D03*
Y132534D02*
D03*
Y134502D02*
D03*
X321576Y165424D02*
D03*
Y163455D02*
D03*
Y161487D02*
D03*
Y159518D02*
D03*
Y157550D02*
D03*
X331025D02*
D03*
Y159518D02*
D03*
Y161487D02*
D03*
Y163455D02*
D03*
Y165424D02*
D03*
D16*
X324137Y128006D02*
D03*
X326105D02*
D03*
X328074D02*
D03*
Y135093D02*
D03*
X326105D02*
D03*
X324137D02*
D03*
X324332Y156762D02*
D03*
X326301D02*
D03*
X328269D02*
D03*
Y166211D02*
D03*
X326301D02*
D03*
X324332D02*
D03*
D17*
X327695Y96337D02*
D03*
Y94762D02*
D03*
Y93187D02*
D03*
Y91613D02*
D03*
Y90038D02*
D03*
Y88463D02*
D03*
X339506D02*
D03*
Y90038D02*
D03*
Y91613D02*
D03*
Y93187D02*
D03*
Y94762D02*
D03*
Y96337D02*
D03*
D18*
X329663Y86494D02*
D03*
X331238D02*
D03*
X332813D02*
D03*
X334387D02*
D03*
X335962D02*
D03*
X337537D02*
D03*
Y98305D02*
D03*
X335962D02*
D03*
X334387D02*
D03*
X332813D02*
D03*
X331238D02*
D03*
X329663D02*
D03*
D19*
X333600Y92400D02*
D03*
D20*
X358649Y83428D02*
D03*
X361248D02*
D03*
X302602Y101000D02*
D03*
X305200D02*
D03*
X303501Y116998D02*
D03*
X306099D02*
D03*
X355901Y120800D02*
D03*
X358499D02*
D03*
X298107Y65227D02*
D03*
X300706D02*
D03*
X300902Y84018D02*
D03*
X303501D02*
D03*
X359202Y100100D02*
D03*
X361800D02*
D03*
D21*
X169104Y189833D02*
D03*
Y187865D02*
D03*
Y185896D02*
D03*
Y183928D02*
D03*
Y181959D02*
D03*
Y179991D02*
D03*
Y178022D02*
D03*
Y176054D02*
D03*
Y174085D02*
D03*
Y172116D02*
D03*
Y170148D02*
D03*
Y168180D02*
D03*
Y166211D02*
D03*
Y164242D02*
D03*
Y162274D02*
D03*
Y160306D02*
D03*
Y158337D02*
D03*
Y156369D02*
D03*
Y154400D02*
D03*
Y152431D02*
D03*
Y150463D02*
D03*
Y148495D02*
D03*
Y146526D02*
D03*
Y144557D02*
D03*
Y142589D02*
D03*
Y140621D02*
D03*
Y138652D02*
D03*
Y136683D02*
D03*
Y134715D02*
D03*
Y132747D02*
D03*
Y130778D02*
D03*
Y128809D02*
D03*
Y126841D02*
D03*
Y124872D02*
D03*
Y122904D02*
D03*
Y120935D02*
D03*
Y118967D02*
D03*
Y116998D02*
D03*
Y115030D02*
D03*
Y113061D02*
D03*
Y111093D02*
D03*
Y109124D02*
D03*
Y107156D02*
D03*
Y105187D02*
D03*
X269301D02*
D03*
Y107156D02*
D03*
Y109124D02*
D03*
Y111093D02*
D03*
Y113061D02*
D03*
Y115030D02*
D03*
Y116998D02*
D03*
Y118967D02*
D03*
Y120935D02*
D03*
Y122904D02*
D03*
Y124872D02*
D03*
Y126841D02*
D03*
Y128809D02*
D03*
Y130778D02*
D03*
Y132747D02*
D03*
Y134715D02*
D03*
Y136683D02*
D03*
Y138652D02*
D03*
Y140621D02*
D03*
Y142589D02*
D03*
Y144557D02*
D03*
Y146526D02*
D03*
Y148495D02*
D03*
Y150463D02*
D03*
Y152431D02*
D03*
Y154400D02*
D03*
Y156369D02*
D03*
Y158337D02*
D03*
Y160306D02*
D03*
Y162274D02*
D03*
Y164242D02*
D03*
Y166211D02*
D03*
Y168180D02*
D03*
Y170148D02*
D03*
Y172116D02*
D03*
Y174085D02*
D03*
Y176054D02*
D03*
Y178022D02*
D03*
Y179991D02*
D03*
Y181959D02*
D03*
Y183928D02*
D03*
Y185896D02*
D03*
Y187865D02*
D03*
Y189833D02*
D03*
D22*
X176880Y97412D02*
D03*
X178848D02*
D03*
X180816D02*
D03*
X182785D02*
D03*
X184754D02*
D03*
X186722D02*
D03*
X188691D02*
D03*
X190659D02*
D03*
X192628D02*
D03*
X194596D02*
D03*
X196565D02*
D03*
X198533D02*
D03*
X200502D02*
D03*
X202470D02*
D03*
X204439D02*
D03*
X206407D02*
D03*
X208376D02*
D03*
X210344D02*
D03*
X212313D02*
D03*
X214281D02*
D03*
X216250D02*
D03*
X218218D02*
D03*
X220187D02*
D03*
X222155D02*
D03*
X224124D02*
D03*
X226092D02*
D03*
X228061D02*
D03*
X230029D02*
D03*
X231998D02*
D03*
X233966D02*
D03*
X235935D02*
D03*
X237903D02*
D03*
X239872D02*
D03*
X241840D02*
D03*
X243809D02*
D03*
X245777D02*
D03*
X247746D02*
D03*
X249714D02*
D03*
X251683D02*
D03*
X253651D02*
D03*
X255620D02*
D03*
X257588D02*
D03*
X259557D02*
D03*
X261525D02*
D03*
Y197609D02*
D03*
X259557D02*
D03*
X257588D02*
D03*
X255620D02*
D03*
X253651D02*
D03*
X251683D02*
D03*
X249714D02*
D03*
X247746D02*
D03*
X245777D02*
D03*
X243809D02*
D03*
X241840D02*
D03*
X239872D02*
D03*
X237903D02*
D03*
X235935D02*
D03*
X233966D02*
D03*
X231998D02*
D03*
X230029D02*
D03*
X228061D02*
D03*
X226092D02*
D03*
X224124D02*
D03*
X222155D02*
D03*
X220187D02*
D03*
X218218D02*
D03*
X216250D02*
D03*
X214281D02*
D03*
X212313D02*
D03*
X210344D02*
D03*
X208376D02*
D03*
X206407D02*
D03*
X204439D02*
D03*
X202470D02*
D03*
X200502D02*
D03*
X198533D02*
D03*
X196565D02*
D03*
X194596D02*
D03*
X192628D02*
D03*
X190659D02*
D03*
X188691D02*
D03*
X186722D02*
D03*
X184754D02*
D03*
X182785D02*
D03*
X180816D02*
D03*
X178848D02*
D03*
X176880D02*
D03*
D23*
X257588Y244446D02*
D03*
X252667D02*
D03*
X247746D02*
D03*
X242824D02*
D03*
X237903D02*
D03*
X232982D02*
D03*
D24*
X264872Y231258D02*
D03*
X225698D02*
D03*
M02*
