M48
;Layer_Color=9474304
;FILE_FORMAT=2:3
INCH,LZ
;TYPE=PLATED
T01F00S00C0.043
T02F00S00C0.053
%
T01
X04389Y01722
Y01822
X00132Y01758
Y01858
Y01958
Y02058
Y02158
Y02258
X04389Y02222
Y02122
Y02022
Y01922
T02
X044Y01151
Y01301
X02466Y00413
X02316
X01639Y00391
X01489
X00998Y00369
X00848
X00118Y01196
Y01346
M30
