G04*
G04 #@! TF.GenerationSoftware,Altium Limited,Altium Designer,24.0.1 (36)*
G04*
G04 Layer_Physical_Order=1*
G04 Layer_Color=255*
%FSLAX25Y25*%
%MOIN*%
G70*
G04*
G04 #@! TF.SameCoordinates,25D60E08-F93C-496E-8ADE-9084BC3AF729*
G04*
G04*
G04 #@! TF.FilePolarity,Positive*
G04*
G01*
G75*
%ADD30R,0.02362X0.01181*%
%ADD31R,0.01181X0.02362*%
%ADD32R,0.02953X0.00787*%
%ADD33R,0.00787X0.02953*%
%ADD34R,0.06260X0.06890*%
%ADD35R,0.01811X0.01654*%
%ADD36R,0.05709X0.01181*%
%ADD37R,0.01181X0.05709*%
%ADD38R,0.02362X0.06693*%
%ADD39R,0.03937X0.11024*%
%ADD40R,0.07972X0.07972*%
%ADD41C,0.07972*%
%ADD42R,0.06496X0.06496*%
%ADD43C,0.06496*%
%ADD44R,0.07972X0.07972*%
G36*
X450000Y709D02*
X449291Y-0D01*
X-0D01*
Y260000D01*
X450000D01*
Y709D01*
D02*
G37*
%LPC*%
G36*
X259769Y248793D02*
X255407D01*
Y240100D01*
X259769D01*
Y248793D01*
D02*
G37*
G36*
X254848D02*
X250486D01*
Y240100D01*
X254848D01*
Y248793D01*
D02*
G37*
G36*
X249927D02*
X245565D01*
Y240100D01*
X249927D01*
Y248793D01*
D02*
G37*
G36*
X245005D02*
X240643D01*
Y240100D01*
X245005D01*
Y248793D01*
D02*
G37*
G36*
X240084D02*
X235722D01*
Y240100D01*
X240084D01*
Y248793D01*
D02*
G37*
G36*
X235163D02*
X230801D01*
Y240100D01*
X235163D01*
Y248793D01*
D02*
G37*
G36*
X267840Y237769D02*
X261903D01*
Y224746D01*
X267840D01*
Y237769D01*
D02*
G37*
G36*
X228667D02*
X222730D01*
Y224746D01*
X228667D01*
Y237769D01*
D02*
G37*
G36*
X13800Y230004D02*
X12682D01*
X11602Y229715D01*
X10633Y229156D01*
X9842Y228365D01*
X9283Y227396D01*
X8993Y226316D01*
Y225197D01*
X9283Y224117D01*
X9842Y223148D01*
X10633Y222357D01*
X11602Y221798D01*
X12682Y221508D01*
X13800D01*
X14881Y221798D01*
X15849Y222357D01*
X16641Y223148D01*
X17200Y224117D01*
X17489Y225197D01*
Y226316D01*
X17200Y227396D01*
X16641Y228365D01*
X15849Y229156D01*
X14881Y229715D01*
X13800Y230004D01*
D02*
G37*
G36*
X439459Y226448D02*
X438341D01*
X437260Y226158D01*
X436292Y225599D01*
X435501Y224808D01*
X434941Y223840D01*
X434652Y222759D01*
Y221641D01*
X434941Y220560D01*
X435501Y219592D01*
X436292Y218801D01*
X437260Y218242D01*
X438341Y217952D01*
X439459D01*
X440540Y218242D01*
X441508Y218801D01*
X442299Y219592D01*
X442859Y220560D01*
X443148Y221641D01*
Y222759D01*
X442859Y223840D01*
X442299Y224808D01*
X441508Y225599D01*
X440540Y226158D01*
X439459Y226448D01*
D02*
G37*
G36*
X13800Y220004D02*
X12682D01*
X11602Y219715D01*
X10633Y219156D01*
X9842Y218365D01*
X9283Y217396D01*
X8993Y216316D01*
Y215197D01*
X9283Y214117D01*
X9842Y213148D01*
X10633Y212357D01*
X11602Y211798D01*
X12682Y211508D01*
X13800D01*
X14881Y211798D01*
X15849Y212357D01*
X16641Y213148D01*
X17200Y214117D01*
X17489Y215197D01*
Y216316D01*
X17200Y217396D01*
X16641Y218365D01*
X15849Y219156D01*
X14881Y219715D01*
X13800Y220004D01*
D02*
G37*
G36*
X439459Y216448D02*
X438341D01*
X437260Y216159D01*
X436292Y215599D01*
X435501Y214808D01*
X434941Y213840D01*
X434652Y212759D01*
Y211641D01*
X434941Y210560D01*
X435501Y209592D01*
X436292Y208801D01*
X437260Y208242D01*
X438341Y207952D01*
X439459D01*
X440540Y208242D01*
X441508Y208801D01*
X442299Y209592D01*
X442859Y210560D01*
X443148Y211641D01*
Y212759D01*
X442859Y213840D01*
X442299Y214808D01*
X441508Y215599D01*
X440540Y216159D01*
X439459Y216448D01*
D02*
G37*
G36*
X13800Y210004D02*
X12682D01*
X11602Y209715D01*
X10633Y209156D01*
X9842Y208365D01*
X9283Y207396D01*
X8993Y206316D01*
Y205197D01*
X9283Y204117D01*
X9842Y203148D01*
X10633Y202357D01*
X11602Y201798D01*
X12682Y201508D01*
X13800D01*
X14881Y201798D01*
X15849Y202357D01*
X16641Y203148D01*
X17200Y204117D01*
X17489Y205197D01*
Y206316D01*
X17200Y207396D01*
X16641Y208365D01*
X15849Y209156D01*
X14881Y209715D01*
X13800Y210004D01*
D02*
G37*
G36*
X439459Y206448D02*
X438341D01*
X437260Y206158D01*
X436292Y205599D01*
X435501Y204808D01*
X434941Y203840D01*
X434652Y202759D01*
Y201641D01*
X434941Y200560D01*
X435501Y199592D01*
X436292Y198801D01*
X437260Y198241D01*
X438341Y197952D01*
X439459D01*
X440540Y198241D01*
X441508Y198801D01*
X442299Y199592D01*
X442859Y200560D01*
X443148Y201641D01*
Y202759D01*
X442859Y203840D01*
X442299Y204808D01*
X441508Y205599D01*
X440540Y206158D01*
X439459Y206448D01*
D02*
G37*
G36*
X263116Y201463D02*
X175289D01*
Y193754D01*
X263116D01*
Y201463D01*
D02*
G37*
G36*
X13800Y200004D02*
X12682D01*
X11602Y199715D01*
X10633Y199156D01*
X9842Y198365D01*
X9283Y197396D01*
X8993Y196316D01*
Y195197D01*
X9283Y194117D01*
X9842Y193148D01*
X10633Y192357D01*
X11602Y191798D01*
X12682Y191508D01*
X13800D01*
X14881Y191798D01*
X15849Y192357D01*
X16641Y193148D01*
X17200Y194117D01*
X17489Y195197D01*
Y196316D01*
X17200Y197396D01*
X16641Y198365D01*
X15849Y199156D01*
X14881Y199715D01*
X13800Y200004D01*
D02*
G37*
G36*
X439459Y196448D02*
X438341D01*
X437260Y196159D01*
X436292Y195599D01*
X435501Y194808D01*
X434941Y193840D01*
X434652Y192759D01*
Y191641D01*
X434941Y190560D01*
X435501Y189592D01*
X436292Y188801D01*
X437260Y188242D01*
X438341Y187952D01*
X439459D01*
X440540Y188242D01*
X441508Y188801D01*
X442299Y189592D01*
X442859Y190560D01*
X443148Y191641D01*
Y192759D01*
X442859Y193840D01*
X442299Y194808D01*
X441508Y195599D01*
X440540Y196159D01*
X439459Y196448D01*
D02*
G37*
G36*
X13800Y190004D02*
X12682D01*
X11602Y189715D01*
X10633Y189156D01*
X9842Y188365D01*
X9283Y187396D01*
X8993Y186316D01*
Y185197D01*
X9283Y184117D01*
X9842Y183148D01*
X10633Y182357D01*
X11602Y181798D01*
X12682Y181508D01*
X13800D01*
X14881Y181798D01*
X15849Y182357D01*
X16641Y183148D01*
X17200Y184117D01*
X17489Y185197D01*
Y186316D01*
X17200Y187396D01*
X16641Y188365D01*
X15849Y189156D01*
X14881Y189715D01*
X13800Y190004D01*
D02*
G37*
G36*
X439459Y186448D02*
X438341D01*
X437260Y186159D01*
X436292Y185599D01*
X435501Y184808D01*
X434941Y183840D01*
X434652Y182759D01*
Y181641D01*
X434941Y180560D01*
X435501Y179592D01*
X436292Y178801D01*
X437260Y178242D01*
X438341Y177952D01*
X439459D01*
X440540Y178242D01*
X441508Y178801D01*
X442299Y179592D01*
X442859Y180560D01*
X443148Y181641D01*
Y182759D01*
X442859Y183840D01*
X442299Y184808D01*
X441508Y185599D01*
X440540Y186159D01*
X439459Y186448D01*
D02*
G37*
G36*
X17489Y180004D02*
X8993D01*
Y171508D01*
X17489D01*
Y180004D01*
D02*
G37*
G36*
X443148Y176448D02*
X434652D01*
Y167952D01*
X443148D01*
Y176448D01*
D02*
G37*
G36*
X329860Y168392D02*
X322742D01*
Y167014D01*
X319395D01*
Y163833D01*
Y161865D01*
Y159896D01*
Y157928D01*
Y155959D01*
X322742D01*
Y154581D01*
X329860D01*
Y155959D01*
X333206D01*
Y157928D01*
Y159896D01*
Y161865D01*
Y163833D01*
Y167014D01*
X329860D01*
Y168392D01*
D02*
G37*
G36*
X12456Y139586D02*
X11144D01*
X9875Y139246D01*
X8738Y138590D01*
X7810Y137662D01*
X7154Y136525D01*
X6814Y135256D01*
Y133944D01*
X7154Y132675D01*
X7810Y131538D01*
X8738Y130610D01*
X9875Y129954D01*
X11144Y129614D01*
X12456D01*
X13725Y129954D01*
X14862Y130610D01*
X15790Y131538D01*
X16446Y132675D01*
X16786Y133944D01*
Y135256D01*
X16446Y136525D01*
X15790Y137662D01*
X14862Y138590D01*
X13725Y139246D01*
X12456Y139586D01*
D02*
G37*
G36*
X329665Y137274D02*
X322547D01*
Y136093D01*
X319397D01*
Y132912D01*
Y130943D01*
Y128975D01*
Y127006D01*
X322547D01*
Y125825D01*
X329665D01*
Y127006D01*
X332814D01*
Y128975D01*
Y130943D01*
Y132912D01*
Y136093D01*
X329665D01*
Y137274D01*
D02*
G37*
G36*
X445034Y135100D02*
X435062D01*
Y125128D01*
X445034D01*
Y135100D01*
D02*
G37*
G36*
X360405Y122627D02*
X353995D01*
Y118973D01*
X360405D01*
Y122627D01*
D02*
G37*
G36*
X308005Y118825D02*
X301595D01*
Y115172D01*
X308005D01*
Y118825D01*
D02*
G37*
G36*
X16786Y124586D02*
X6814D01*
Y114614D01*
X16786D01*
Y124586D01*
D02*
G37*
G36*
X440704Y120100D02*
X439392D01*
X438123Y119761D01*
X436986Y119104D01*
X436058Y118176D01*
X435402Y117039D01*
X435062Y115771D01*
Y114458D01*
X435402Y113190D01*
X436058Y112053D01*
X436986Y111124D01*
X438123Y110468D01*
X439392Y110128D01*
X440704D01*
X441973Y110468D01*
X443110Y111124D01*
X444038Y112053D01*
X444694Y113190D01*
X445034Y114458D01*
Y115771D01*
X444694Y117039D01*
X444038Y118176D01*
X443110Y119104D01*
X441973Y119761D01*
X440704Y120100D01*
D02*
G37*
G36*
X273155Y191424D02*
X265446D01*
Y188242D01*
Y186274D01*
Y184306D01*
Y182337D01*
Y180368D01*
Y178400D01*
Y176432D01*
Y174463D01*
Y172494D01*
Y170526D01*
Y168558D01*
Y166589D01*
Y164620D01*
Y162652D01*
Y160684D01*
Y158715D01*
Y156746D01*
Y154778D01*
Y152809D01*
Y150841D01*
Y148872D01*
Y146904D01*
Y144935D01*
Y142967D01*
Y140998D01*
Y139030D01*
Y137061D01*
Y135093D01*
Y133124D01*
Y131156D01*
Y129187D01*
Y127219D01*
Y125250D01*
Y123282D01*
Y121313D01*
Y119345D01*
Y117376D01*
Y115408D01*
Y113439D01*
Y111471D01*
Y109502D01*
Y107534D01*
Y105565D01*
Y103597D01*
X273155D01*
Y105565D01*
Y107534D01*
Y109502D01*
Y111471D01*
Y113439D01*
Y115408D01*
Y117376D01*
Y119345D01*
Y121313D01*
Y123282D01*
Y125250D01*
Y127219D01*
Y129187D01*
Y131156D01*
Y133124D01*
Y135093D01*
Y137061D01*
Y139030D01*
Y140998D01*
Y142967D01*
Y144935D01*
Y146904D01*
Y148872D01*
Y150841D01*
Y152809D01*
Y154778D01*
Y156746D01*
Y158715D01*
Y160684D01*
Y162652D01*
Y164620D01*
Y166589D01*
Y168558D01*
Y170526D01*
Y172494D01*
Y174463D01*
Y176432D01*
Y178400D01*
Y180368D01*
Y182337D01*
Y184306D01*
Y186274D01*
Y188242D01*
Y191424D01*
D02*
G37*
G36*
X172958D02*
X165250D01*
Y188242D01*
Y186274D01*
Y184306D01*
Y182337D01*
Y180368D01*
Y178400D01*
Y176432D01*
Y174463D01*
Y172494D01*
Y170526D01*
Y168558D01*
Y166589D01*
Y164620D01*
Y162652D01*
Y160684D01*
Y158715D01*
Y156746D01*
Y154778D01*
Y152809D01*
Y150841D01*
Y148872D01*
Y146904D01*
Y144935D01*
Y142967D01*
Y140998D01*
Y139030D01*
Y137061D01*
Y135093D01*
Y133124D01*
Y131156D01*
Y129187D01*
Y127219D01*
Y125250D01*
Y123282D01*
Y121313D01*
Y119345D01*
Y117376D01*
Y115408D01*
Y113439D01*
Y111471D01*
Y109502D01*
Y107534D01*
Y105565D01*
Y103597D01*
X172958D01*
Y105565D01*
Y107534D01*
Y109502D01*
Y111471D01*
Y113439D01*
Y115408D01*
Y117376D01*
Y119345D01*
Y121313D01*
Y123282D01*
Y125250D01*
Y127219D01*
Y129187D01*
Y131156D01*
Y133124D01*
Y135093D01*
Y137061D01*
Y139030D01*
Y140998D01*
Y142967D01*
Y144935D01*
Y146904D01*
Y148872D01*
Y150841D01*
Y152809D01*
Y154778D01*
Y156746D01*
Y158715D01*
Y160684D01*
Y162652D01*
Y164620D01*
Y166589D01*
Y168558D01*
Y170526D01*
Y172494D01*
Y174463D01*
Y176432D01*
Y178400D01*
Y180368D01*
Y182337D01*
Y184306D01*
Y186274D01*
Y188242D01*
Y191424D01*
D02*
G37*
G36*
X307105Y102827D02*
X300696D01*
Y99173D01*
X307105D01*
Y102827D01*
D02*
G37*
G36*
X363705Y101927D02*
X357296D01*
Y98273D01*
X363705D01*
Y101927D01*
D02*
G37*
G36*
X263116Y101266D02*
X175289D01*
Y93558D01*
X263116D01*
Y101266D01*
D02*
G37*
G36*
X338931Y100782D02*
X328269D01*
Y97731D01*
X325218D01*
Y94943D01*
Y93369D01*
Y91794D01*
Y90219D01*
Y88644D01*
Y87069D01*
X328269D01*
Y84018D01*
X338931D01*
Y87069D01*
X341982D01*
Y88644D01*
Y90219D01*
Y91794D01*
Y93369D01*
Y94943D01*
Y97731D01*
X338931D01*
Y100782D01*
D02*
G37*
G36*
X305406Y85845D02*
X298997D01*
Y82191D01*
X305406D01*
Y85845D01*
D02*
G37*
G36*
X363153Y85254D02*
X356744D01*
Y81601D01*
X363153D01*
Y85254D01*
D02*
G37*
G36*
X302611Y67054D02*
X296202D01*
Y63400D01*
X302611D01*
Y67054D01*
D02*
G37*
G36*
X247256Y46286D02*
X245944D01*
X244675Y45946D01*
X243538Y45290D01*
X242610Y44362D01*
X241954Y43225D01*
X241614Y41956D01*
Y40644D01*
X241954Y39375D01*
X242610Y38238D01*
X243538Y37310D01*
X244675Y36654D01*
X245944Y36314D01*
X247256D01*
X248525Y36654D01*
X249662Y37310D01*
X250590Y38238D01*
X251246Y39375D01*
X251586Y40644D01*
Y41956D01*
X251246Y43225D01*
X250590Y44362D01*
X249662Y45290D01*
X248525Y45946D01*
X247256Y46286D01*
D02*
G37*
G36*
X236586D02*
X226614D01*
Y36314D01*
X236586D01*
Y46286D01*
D02*
G37*
G36*
X164556Y44086D02*
X163244D01*
X161975Y43746D01*
X160838Y43090D01*
X159910Y42162D01*
X159254Y41025D01*
X158914Y39757D01*
Y38443D01*
X159254Y37175D01*
X159910Y36038D01*
X160838Y35110D01*
X161975Y34454D01*
X163244Y34114D01*
X164556D01*
X165825Y34454D01*
X166962Y35110D01*
X167890Y36038D01*
X168546Y37175D01*
X168886Y38443D01*
Y39757D01*
X168546Y41025D01*
X167890Y42162D01*
X166962Y43090D01*
X165825Y43746D01*
X164556Y44086D01*
D02*
G37*
G36*
X153886D02*
X143914D01*
Y34114D01*
X153886D01*
Y44086D01*
D02*
G37*
G36*
X100456Y41886D02*
X99144D01*
X97875Y41546D01*
X96738Y40890D01*
X95810Y39962D01*
X95154Y38825D01*
X94814Y37556D01*
Y36244D01*
X95154Y34975D01*
X95810Y33838D01*
X96738Y32910D01*
X97875Y32254D01*
X99144Y31914D01*
X100456D01*
X101725Y32254D01*
X102862Y32910D01*
X103790Y33838D01*
X104446Y34975D01*
X104786Y36244D01*
Y37556D01*
X104446Y38825D01*
X103790Y39962D01*
X102862Y40890D01*
X101725Y41546D01*
X100456Y41886D01*
D02*
G37*
G36*
X89786D02*
X79814D01*
Y31914D01*
X89786D01*
Y41886D01*
D02*
G37*
%LPD*%
G36*
X328844Y163833D02*
Y161865D01*
Y159896D01*
Y158943D01*
X323758D01*
Y159896D01*
Y161865D01*
Y163833D01*
Y164030D01*
X328844D01*
Y163833D01*
D02*
G37*
D30*
X321578Y134502D02*
D03*
Y132534D02*
D03*
Y130565D02*
D03*
Y128597D02*
D03*
X330633D02*
D03*
Y130565D02*
D03*
Y132534D02*
D03*
Y134502D02*
D03*
X321576Y165424D02*
D03*
Y163455D02*
D03*
Y161487D02*
D03*
Y159518D02*
D03*
Y157550D02*
D03*
X331025D02*
D03*
Y159518D02*
D03*
Y161487D02*
D03*
Y163455D02*
D03*
Y165424D02*
D03*
D31*
X324137Y128006D02*
D03*
X326105D02*
D03*
X328074D02*
D03*
Y135093D02*
D03*
X326105D02*
D03*
X324137D02*
D03*
X324332Y156762D02*
D03*
X326301D02*
D03*
X328269D02*
D03*
Y166211D02*
D03*
X326301D02*
D03*
X324332D02*
D03*
D32*
X327695Y96337D02*
D03*
Y94762D02*
D03*
Y93187D02*
D03*
Y91613D02*
D03*
Y90038D02*
D03*
Y88463D02*
D03*
X339506D02*
D03*
Y90038D02*
D03*
Y91613D02*
D03*
Y93187D02*
D03*
Y94762D02*
D03*
Y96337D02*
D03*
D33*
X329663Y86494D02*
D03*
X331238D02*
D03*
X332813D02*
D03*
X334387D02*
D03*
X335962D02*
D03*
X337537D02*
D03*
Y98305D02*
D03*
X335962D02*
D03*
X334387D02*
D03*
X332813D02*
D03*
X331238D02*
D03*
X329663D02*
D03*
D34*
X333600Y92400D02*
D03*
D35*
X358649Y83428D02*
D03*
X361248D02*
D03*
X302602Y101000D02*
D03*
X305200D02*
D03*
X303501Y116998D02*
D03*
X306099D02*
D03*
X355901Y120800D02*
D03*
X358499D02*
D03*
X298107Y65227D02*
D03*
X300706D02*
D03*
X300902Y84018D02*
D03*
X303501D02*
D03*
X359202Y100100D02*
D03*
X361800D02*
D03*
D36*
X169104Y189833D02*
D03*
Y187865D02*
D03*
Y185896D02*
D03*
Y183928D02*
D03*
Y181959D02*
D03*
Y179991D02*
D03*
Y178022D02*
D03*
Y176054D02*
D03*
Y174085D02*
D03*
Y172116D02*
D03*
Y170148D02*
D03*
Y168180D02*
D03*
Y166211D02*
D03*
Y164242D02*
D03*
Y162274D02*
D03*
Y160306D02*
D03*
Y158337D02*
D03*
Y156369D02*
D03*
Y154400D02*
D03*
Y152431D02*
D03*
Y150463D02*
D03*
Y148495D02*
D03*
Y146526D02*
D03*
Y144557D02*
D03*
Y142589D02*
D03*
Y140621D02*
D03*
Y138652D02*
D03*
Y136683D02*
D03*
Y134715D02*
D03*
Y132747D02*
D03*
Y130778D02*
D03*
Y128809D02*
D03*
Y126841D02*
D03*
Y124872D02*
D03*
Y122904D02*
D03*
Y120935D02*
D03*
Y118967D02*
D03*
Y116998D02*
D03*
Y115030D02*
D03*
Y113061D02*
D03*
Y111093D02*
D03*
Y109124D02*
D03*
Y107156D02*
D03*
Y105187D02*
D03*
X269301D02*
D03*
Y107156D02*
D03*
Y109124D02*
D03*
Y111093D02*
D03*
Y113061D02*
D03*
Y115030D02*
D03*
Y116998D02*
D03*
Y118967D02*
D03*
Y120935D02*
D03*
Y122904D02*
D03*
Y124872D02*
D03*
Y126841D02*
D03*
Y128809D02*
D03*
Y130778D02*
D03*
Y132747D02*
D03*
Y134715D02*
D03*
Y136683D02*
D03*
Y138652D02*
D03*
Y140621D02*
D03*
Y142589D02*
D03*
Y144557D02*
D03*
Y146526D02*
D03*
Y148495D02*
D03*
Y150463D02*
D03*
Y152431D02*
D03*
Y154400D02*
D03*
Y156369D02*
D03*
Y158337D02*
D03*
Y160306D02*
D03*
Y162274D02*
D03*
Y164242D02*
D03*
Y166211D02*
D03*
Y168180D02*
D03*
Y170148D02*
D03*
Y172116D02*
D03*
Y174085D02*
D03*
Y176054D02*
D03*
Y178022D02*
D03*
Y179991D02*
D03*
Y181959D02*
D03*
Y183928D02*
D03*
Y185896D02*
D03*
Y187865D02*
D03*
Y189833D02*
D03*
D37*
X176880Y97412D02*
D03*
X178848D02*
D03*
X180816D02*
D03*
X182785D02*
D03*
X184754D02*
D03*
X186722D02*
D03*
X188691D02*
D03*
X190659D02*
D03*
X192628D02*
D03*
X194596D02*
D03*
X196565D02*
D03*
X198533D02*
D03*
X200502D02*
D03*
X202470D02*
D03*
X204439D02*
D03*
X206407D02*
D03*
X208376D02*
D03*
X210344D02*
D03*
X212313D02*
D03*
X214281D02*
D03*
X216250D02*
D03*
X218218D02*
D03*
X220187D02*
D03*
X222155D02*
D03*
X224124D02*
D03*
X226092D02*
D03*
X228061D02*
D03*
X230029D02*
D03*
X231998D02*
D03*
X233966D02*
D03*
X235935D02*
D03*
X237903D02*
D03*
X239872D02*
D03*
X241840D02*
D03*
X243809D02*
D03*
X245777D02*
D03*
X247746D02*
D03*
X249714D02*
D03*
X251683D02*
D03*
X253651D02*
D03*
X255620D02*
D03*
X257588D02*
D03*
X259557D02*
D03*
X261525D02*
D03*
Y197609D02*
D03*
X259557D02*
D03*
X257588D02*
D03*
X255620D02*
D03*
X253651D02*
D03*
X251683D02*
D03*
X249714D02*
D03*
X247746D02*
D03*
X245777D02*
D03*
X243809D02*
D03*
X241840D02*
D03*
X239872D02*
D03*
X237903D02*
D03*
X235935D02*
D03*
X233966D02*
D03*
X231998D02*
D03*
X230029D02*
D03*
X228061D02*
D03*
X226092D02*
D03*
X224124D02*
D03*
X222155D02*
D03*
X220187D02*
D03*
X218218D02*
D03*
X216250D02*
D03*
X214281D02*
D03*
X212313D02*
D03*
X210344D02*
D03*
X208376D02*
D03*
X206407D02*
D03*
X204439D02*
D03*
X202470D02*
D03*
X200502D02*
D03*
X198533D02*
D03*
X196565D02*
D03*
X194596D02*
D03*
X192628D02*
D03*
X190659D02*
D03*
X188691D02*
D03*
X186722D02*
D03*
X184754D02*
D03*
X182785D02*
D03*
X180816D02*
D03*
X178848D02*
D03*
X176880D02*
D03*
D38*
X257588Y244446D02*
D03*
X252667D02*
D03*
X247746D02*
D03*
X242824D02*
D03*
X237903D02*
D03*
X232982D02*
D03*
D39*
X264872Y231258D02*
D03*
X225698D02*
D03*
D40*
X11800Y119600D02*
D03*
X440048Y130114D02*
D03*
D41*
X11800Y134600D02*
D03*
X440048Y115114D02*
D03*
X99800Y36900D02*
D03*
X163900Y39100D02*
D03*
X246600Y41300D02*
D03*
D42*
X438900Y172200D02*
D03*
X13241Y175756D02*
D03*
D43*
X438900Y182200D02*
D03*
Y192200D02*
D03*
Y202200D02*
D03*
Y212200D02*
D03*
Y222200D02*
D03*
X13241Y185756D02*
D03*
Y195756D02*
D03*
Y205756D02*
D03*
Y215756D02*
D03*
Y225756D02*
D03*
D44*
X84800Y36900D02*
D03*
X148900Y39100D02*
D03*
X231600Y41300D02*
D03*
M02*
